<mxfile host="65bd71144e">
    <diagram id="oiHwWS-CIaX0NQefUhB5" name="Page-1">
        <mxGraphModel dx="763" dy="699" grid="1" gridSize="10" guides="1" tooltips="1" connect="1" arrows="1" fold="1" page="0" pageScale="1" pageWidth="850" pageHeight="1100" math="0" shadow="0">
            <root>
                <mxCell id="0"/>
                <mxCell id="1" parent="0"/>
                <mxCell id="62" value="&lt;font color=&quot;#331a00&quot; style=&quot;font-size: 28px;&quot;&gt;&amp;nbsp; raspberry pi&lt;/font&gt;" style="rounded=1;whiteSpace=wrap;html=1;fontSize=28;fillColor=#FFCCCC;strokeColor=#FF0000;opacity=30;arcSize=4;labelPosition=center;verticalLabelPosition=middle;align=left;verticalAlign=top;" parent="1" vertex="1">
                    <mxGeometry x="160" y="410" width="570" height="340" as="geometry"/>
                </mxCell>
                <mxCell id="11" value="&lt;font color=&quot;#331a00&quot; style=&quot;font-size: 28px;&quot;&gt;&amp;nbsp; k3s&lt;/font&gt;" style="rounded=1;whiteSpace=wrap;html=1;fontSize=28;fillColor=#fad7ac;strokeColor=#b46504;opacity=30;arcSize=4;labelPosition=center;verticalLabelPosition=middle;align=left;verticalAlign=top;" parent="1" vertex="1">
                    <mxGeometry x="200" y="460" width="520" height="280" as="geometry"/>
                </mxCell>
                <mxCell id="18" style="html=1;exitX=0.5;exitY=1;exitDx=0;exitDy=0;exitPerimeter=0;entryX=0.5;entryY=0;entryDx=0;entryDy=0;entryPerimeter=0;fontSize=18;dashed=1;endArrow=none;endFill=0;" parent="1" source="20" target="24" edge="1">
                    <mxGeometry relative="1" as="geometry"/>
                </mxCell>
                <mxCell id="20" value="&lt;div&gt;&lt;br&gt;&lt;/div&gt;&lt;div&gt;mkdocs&lt;/div&gt;&lt;div&gt;Deployment&lt;/div&gt;" style="sketch=0;html=1;dashed=0;whitespace=wrap;fillColor=#2875E2;strokeColor=#ffffff;points=[[0.005,0.63,0],[0.1,0.2,0],[0.9,0.2,0],[0.5,0,0],[0.995,0.63,0],[0.72,0.99,0],[0.5,1,0],[0.28,0.99,0]];verticalLabelPosition=top;align=center;verticalAlign=bottom;shape=mxgraph.kubernetes.icon;prIcon=deploy;fontSize=18;labelPosition=center;" parent="1" vertex="1">
                    <mxGeometry x="640" y="551" width="50" height="48" as="geometry"/>
                </mxCell>
                <mxCell id="21" style="edgeStyle=none;html=1;exitX=0.995;exitY=0.63;exitDx=0;exitDy=0;exitPerimeter=0;entryX=0.005;entryY=0.63;entryDx=0;entryDy=0;entryPerimeter=0;fontSize=18;endArrow=none;endFill=0;startArrow=none;" parent="1" source="44" target="23" edge="1">
                    <mxGeometry relative="1" as="geometry">
                        <mxPoint x="440.75" y="581.2400000000002" as="sourcePoint"/>
                    </mxGeometry>
                </mxCell>
                <mxCell id="23" value="Ingress" style="sketch=0;html=1;dashed=0;whitespace=wrap;fillColor=#2875E2;strokeColor=#ffffff;points=[[0.005,0.63,0],[0.1,0.2,0],[0.9,0.2,0],[0.5,0,0],[0.995,0.63,0],[0.72,0.99,0],[0.5,1,0],[0.28,0.99,0]];verticalLabelPosition=top;align=center;verticalAlign=bottom;shape=mxgraph.kubernetes.icon;prIcon=ing;fontSize=18;labelPosition=center;" parent="1" vertex="1">
                    <mxGeometry x="460" y="551" width="50" height="48" as="geometry"/>
                </mxCell>
                <mxCell id="24" value="" style="sketch=0;html=1;dashed=0;whitespace=wrap;fillColor=#2875E2;strokeColor=#ffffff;points=[[0.005,0.63,0],[0.1,0.2,0],[0.9,0.2,0],[0.5,0,0],[0.995,0.63,0],[0.72,0.99,0],[0.5,1,0],[0.28,0.99,0]];verticalLabelPosition=bottom;align=center;verticalAlign=top;shape=mxgraph.kubernetes.icon;prIcon=pod;fontSize=18;" parent="1" vertex="1">
                    <mxGeometry x="650" y="630" width="30" height="30" as="geometry"/>
                </mxCell>
                <mxCell id="30" style="edgeStyle=none;html=1;exitX=0.995;exitY=0.63;exitDx=0;exitDy=0;exitPerimeter=0;entryX=0.005;entryY=0.63;entryDx=0;entryDy=0;entryPerimeter=0;fontSize=18;endArrow=none;endFill=0;" parent="1" source="32" target="20" edge="1">
                    <mxGeometry relative="1" as="geometry"/>
                </mxCell>
                <mxCell id="31" style="edgeStyle=none;html=1;exitX=0.005;exitY=0.63;exitDx=0;exitDy=0;exitPerimeter=0;entryX=0.995;entryY=0.63;entryDx=0;entryDy=0;entryPerimeter=0;fontSize=18;endArrow=none;endFill=0;" parent="1" source="32" target="23" edge="1">
                    <mxGeometry relative="1" as="geometry"/>
                </mxCell>
                <mxCell id="32" value="&lt;div&gt;Service&lt;/div&gt;" style="sketch=0;html=1;dashed=0;whitespace=wrap;fillColor=#2875E2;strokeColor=#ffffff;points=[[0.005,0.63,0],[0.1,0.2,0],[0.9,0.2,0],[0.5,0,0],[0.995,0.63,0],[0.72,0.99,0],[0.5,1,0],[0.28,0.99,0]];verticalLabelPosition=top;align=center;verticalAlign=bottom;shape=mxgraph.kubernetes.icon;prIcon=svc;fontSize=18;labelPosition=center;" parent="1" vertex="1">
                    <mxGeometry x="550" y="551" width="50" height="48" as="geometry"/>
                </mxCell>
                <mxCell id="40" style="edgeStyle=none;html=1;exitX=0.995;exitY=0.63;exitDx=0;exitDy=0;exitPerimeter=0;strokeWidth=1;entryX=-0.014;entryY=0.689;entryDx=0;entryDy=0;entryPerimeter=0;" parent="1" source="41" target="43" edge="1">
                    <mxGeometry relative="1" as="geometry">
                        <mxPoint x="269.9999999999999" y="821.75" as="targetPoint"/>
                    </mxGeometry>
                </mxCell>
                <mxCell id="41" value="dev (me)" style="sketch=0;html=1;dashed=0;whitespace=wrap;fillColor=#2875E2;strokeColor=#ffffff;points=[[0.005,0.63,0],[0.1,0.2,0],[0.9,0.2,0],[0.5,0,0],[0.995,0.63,0],[0.72,0.99,0],[0.5,1,0],[0.28,0.99,0]];verticalLabelPosition=bottom;align=center;verticalAlign=top;shape=mxgraph.kubernetes.icon;prIcon=user;fontSize=18;" parent="1" vertex="1">
                    <mxGeometry x="190" y="790" width="50" height="50" as="geometry"/>
                </mxCell>
                <mxCell id="42" style="edgeStyle=none;html=1;exitX=0.5;exitY=0;exitDx=0;exitDy=0;entryX=0.25;entryY=1;entryDx=0;entryDy=0;shape=link;strokeWidth=4;fillColor=#ffe6cc;strokeColor=#d79b00;" parent="1" source="43" target="11" edge="1">
                    <mxGeometry relative="1" as="geometry">
                        <mxPoint x="390" y="670" as="targetPoint"/>
                    </mxGeometry>
                </mxCell>
                <mxCell id="43" value="" style="shape=image;verticalLabelPosition=bottom;labelBackgroundColor=default;verticalAlign=top;aspect=fixed;imageAspect=0;image=data:image/png,iVBORw0KGgoAAAANSUhEUgAAAOEAAADhCAMAAAAJbSJIAAAAY1BMVEU9kM7///88kM4vi8w4js1kpNZZntRvqdhDlNCLuN8miMsuisw2jc37/f72+v2ZwOJQmdLh7Pbt9Pq81eyz0OnV5fPn8PiqyuejxuWCs93a6PScwuNgodXC2e14rtqSvODM3/DuvJMeAAAJ1ElEQVR4nO2d6YKqPAyGteDWIuO+zSje/1WesS1aoCsE2s7h/fMtKvA4kqRpEibTv66J7wvoXSNh/BoJ49f/Q4hJ8rdEcI2QpOhvKSU1wgRN/pZQMhLGrpEwfo2E8WskjF8jYfwaCePXSBi/RsL4NRLGr5Ewfo2E8WskjF8jYfxyJESpu9gnW3zQ8sighGg5d9aGXkjq/kGTZnMrRDfCdDZ11uJ1HSly/6BJ52UghPSA2QOKiyv/SpI+fqUtCLfk9cHkDMb20m5FPnwp0aL2TnighOQIRjednq4ke19lijfPmQ6xd8JrRs+yBuPbPrDIN79Pp34JN6/jpXMovtsCZ5/LwbPn6396Jczx63NZAcN3nAl8GZ7x375Xwie7De8QfM85/qBk+LEtX/BK+E2/c7zrznfffPhQgq+nz0teCenJ02Vnvv3y4xNQRlaVr8wrYQbi7w8iX0KK2k/CJyH394cueOuz4NPTJPnO6+/wSXhIXh8jt/Z8+XdSCV8uEs/qk5D5e2x+o4qvqPChszRy8ElIl07pT0u+3UoMX8hS9WP3SLhj/v6rFd9v+JkI4dlyr3ynR0Lu758t+LaLRvgZIuFXW3//Cq8/Z8Vz/XfkkfCH3oYbV75KeP0JP5XyR7imyaLs6sZXC68XZlfjj/BGDY2bv3/+COGnGF4HScj8Pba5SK5KeJ1VwusgCa/M0Fi/fy/wpRle2Voof4Q03Wf9mQMiH/eQZF+N8FMpb4Tc339bvfmMxPCaXOz5PBLerf19fiHV8NPlNB4Jmb8nxr/GK7v7PuvvT9V5reWNkPp7ZPL3uwJnH/tJNurwUylfhNzfr7RvOl0r4eemVcrKFyHz90T3m5Nkd2MiPJv8fS27+9NmCeKV8JGJx29Ikd1tI1+E1H6kC/mLteyuRXitkSdC5u+Ti+y1+9w9vA6PUO3vxezu7wVYhtfhERbsNmxEz2J291cZwN6pJ8K5zN9XsrtMpJ0P7ItwaR0Qr+mBkoq/zy+ZZEc6bRXH9EQ4yay3Oo/M3wvXnn8RRXEBIppU4cCEE6IPwj7i/v5tRV7FBepDa9K9QxNOsOW3Tf19mvL/qoSfCkbXNVNfhAjbOWcWdjN/Xwk/NYyZfFtiYMIJQjbWhvv715+lEn7qGZP0uw0jMOEks9lo2TN/f6uGnxaM2CE/0xfhhFhUVhTU0KR3IftpJ5QkhSsjOKGNteF1g5a1Z9VLcsgjwhOyF5ExybsmFl+UhpGsXIJVQEK0zPg/DQbhSDoATlg5if2CAzJqW1zo/TXJDAEq8/ed5LCogo28Z+zaiX5fd+FgPzWMlgtjWMI1r8zF2hWBZQ22mXFmwwi8etpi+o6UaGzBqeNtKJzRJoEDvT68Y/bvGmuzByO02OPuYQVcsOvPFEmmX626GxoXRvg1/ozZEaLcVbLrE7CXIRkOT5gj9ias+GrXGApN2LDRJAJ6yNOU1iaRW5uu/v5zdUJWBw1bE7UvrY30jBeo2zC5i5lHZSKgl1zbilsbaeXoAuo2TAqaXRVq26SJgH6yiT/c2shy2hMoQpaM3G9ERkkioB/CnIctEmtzgjM0CVsq3pdCkUaS1WtMe8oI30pr01jLAfr796aAuNORJrhaJ9xXzvvArU1jGxvQ3wuFHOJuVS0R0FtWn1ubpG5tNnBtqJUT1grCPomA/vYt5sza4Kp9g/P3LydYOfSxwvjuSeiPMOdFFLgS/oP5e3ro2urpOJP0lfS493Tk1iYTrQ2Yv3+p2bhYKz59nPrdXSutjbhhA+bvKYJkAdNg1J6x6/7hlf3BRGuDIAnlcWGlSDrT5/U675DyhRJ+R4xw/p4dWB7cm7d6SnUmzJOatYFc30+qO5AV7a7E6obvvst95Ldiyl3wCiLN9pGmaqzScKIUwD7+mSGW28N2XfLW0nby7wpiZISoVHhwa0O/7Rz2NjR1a+SFbmv5JZBajI1gbZ6wt6G5wzb/0m//gBDu2Dno9jCov3/J3CW91gbCMPU0T25tUA7r7+lBzeUfQ1QMXXhS4wfW39MrNJdRD1IT9WA+IgPZkqnKXAo/TNUXdxLQf8GJqrxxeMJdmw1tK5mL6Qaq3HtCO8L3JRL1SQclnH5De8JSxlbwwaove7AyVMb2vsEI18AhaSnjSIbhKmhPruVBdjKO1RiwRvjej7VRrIJ9EE6/erE2ylWwB8KyGAVWht6pYQl7sTamG3HYWv0T7mG0JNFX8g3cjQBrbdi1G4LvofstCshiGvajN8wOGbyjZAYW2yCyY/3g+rLkwQnzCdStiPdlT7+22nP4rqAtkLV5lVvzOUza4jYPfU97EGtDM7BbTZOfR8Jye7iTeBYd6Ro1/RGWxShdxHdC2AzbVHcyL4R55xracu/8Yh6Q4qf/8NbR2rx3JI/moXaeOiwPnayNUMPC5ofoBhX56uW+dlhmiHVIdA9WuwXlbS7GvL21EevkzQPDvBHmWVtrU+l14EPfNKtgfzOGji1vxWq/yo6ZGs0q2OO8tnbWJkXVKJRunummwHidfdnC2jS6VGllgG4LyusM2o37rYjrrm9vmsbkd9q1c94maXi+k2mCJujEgWLlpmLmGNrIpiwiwyoYssMydX60uStgs+S43H5VT7aD75LtUdImFdMqOCZCeaPR7dP6HjthIl/osqlh6lUwKGEfD8RJy1Mq24tn+uAblHDZi0wt4oZVsN/nW9hozlvhlMG1YRUcPCGvxdHE1mv9Kjh0wlr1plT6VXDghPUKXKkK7So4bMJ3h5g2q33XPuokbEKe6iD6AUN8FawoxAyasNB1agpiW1CKWzVkQn23rSBWH4/l92rAhHxLHOnmMzBpV8HhEtrN2KA66eZKh0vIC+FspjJNdXvBwRKWpdNWB2XzXrPgnsKik1D+bqGz5pk8gRLusk8Lg4VumucoBkrYaHoziPbgyeephEm4ajYu6jVT7wUHSahsdVfqwny+bBUcIuFWOa5AKb4FJftRB0i4XuoH3MiUsxtRtgoOkLAcUuT0qCu2CpZFsOERfru4+rfYsElZIWZwhNzVo4nbrFL1Kjg0wne3ouMkdj70VRLEhka4cXT1byHVKjgwwnJGgeOTvKZTdSFmWIQHi9yhQspVcFCEN9msEEuxQsysWYgZEmGOlNOlLMRuxOY1hESomxBm1oJNQR9o1lcrmWdKasUn2TcWlOEQ3m1zhwqp9oKDIdyxAYEobf2UbvoTaGaPQWdBLzqILyjSzaPTERBSHBiC8Pf776Lyl9BxO7xxEYAzhmLUSBi/RsL4NRLGr5Ewfo2E8WskjF8jYfwaCePXSBi/RsL4NRLGr5Ewfo2E8atBSFL0t5SSGiEmzq2+YYvgGuHf1UgYv0bC+DUSxq9/neXFwSIJ7PkAAAAASUVORK5CYII=;" parent="1" vertex="1">
                    <mxGeometry x="300" y="780" width="60" height="60" as="geometry"/>
                </mxCell>
                <mxCell id="56" style="edgeStyle=none;html=1;exitX=0.5;exitY=1;exitDx=0;exitDy=0;exitPerimeter=0;strokeWidth=1;fontSize=18;endArrow=none;endFill=0;" parent="1" source="46" edge="1">
                    <mxGeometry relative="1" as="geometry">
                        <mxPoint x="305.83333333333337" y="660" as="targetPoint"/>
                        <mxPoint x="306" y="599" as="sourcePoint"/>
                    </mxGeometry>
                </mxCell>
                <mxCell id="44" value="Traefik" style="sketch=0;html=1;dashed=0;whitespace=wrap;fillColor=#2875E2;strokeColor=#ffffff;points=[[0.005,0.63,0],[0.1,0.2,0],[0.9,0.2,0],[0.5,0,0],[0.995,0.63,0],[0.72,0.99,0],[0.5,1,0],[0.28,0.99,0]];verticalLabelPosition=top;align=center;verticalAlign=bottom;shape=mxgraph.kubernetes.icon;prIcon=svc;fontSize=18;labelPosition=center;" parent="1" vertex="1">
                    <mxGeometry x="370" y="551" width="50" height="48" as="geometry"/>
                </mxCell>
                <mxCell id="47" value="" style="edgeStyle=none;html=1;exitX=0.995;exitY=0.63;exitDx=0;exitDy=0;exitPerimeter=0;entryX=0.005;entryY=0.63;entryDx=0;entryDy=0;entryPerimeter=0;fontSize=18;endArrow=none;endFill=0;" parent="1" target="46" edge="1">
                    <mxGeometry relative="1" as="geometry">
                        <mxPoint x="310.75" y="581.24" as="sourcePoint"/>
                        <mxPoint x="391.25" y="581.24" as="targetPoint"/>
                    </mxGeometry>
                </mxCell>
                <mxCell id="52" style="edgeStyle=none;html=1;exitX=0.005;exitY=0.63;exitDx=0;exitDy=0;exitPerimeter=0;entryX=1;entryY=0.5;entryDx=0;entryDy=0;fontSize=18;endArrow=none;endFill=0;shape=link;strokeWidth=5;strokeColor=#FF8000;" parent="1" source="46" target="50" edge="1">
                    <mxGeometry relative="1" as="geometry">
                        <mxPoint x="200" y="581" as="targetPoint"/>
                    </mxGeometry>
                </mxCell>
                <mxCell id="46" value="cloudflared" style="sketch=0;html=1;dashed=0;whitespace=wrap;fillColor=#FF8000;strokeColor=#ffffff;points=[[0.005,0.63,0],[0.1,0.2,0],[0.9,0.2,0],[0.5,0,0],[0.995,0.63,0],[0.72,0.99,0],[0.5,1,0],[0.28,0.99,0]];verticalLabelPosition=top;align=center;verticalAlign=bottom;shape=mxgraph.kubernetes.icon;prIcon=deploy;fontSize=18;labelPosition=center;" parent="1" vertex="1">
                    <mxGeometry x="281" y="551" width="50" height="48" as="geometry"/>
                </mxCell>
                <mxCell id="50" value="Cloudflare&#10;Zero Trust" style="shape=image;verticalLabelPosition=bottom;labelBackgroundColor=none;verticalAlign=top;aspect=fixed;imageAspect=0;image=data:image/png,UklGRhIQAABXRUJQVlA4WAoAAAAIAAAA/wAA/wAAVlA4IDIPAAAwRgCdASoAAQABPhkMhUGhBF5DOQQAYSm7hc/D50h/Pvxc8V6yHLv6B+lv7S/7bpYtm+y37J/6TqNDPekHpx9Y/u37B/3z///+/8h/0D1HeYB+gH9c/ov+L/yH9q////l8CvmA/l/9E/3f9i92v/AfyX2RfkB7gH8y/on/T/P/5jfUU/cD2AP2F9Wf/B/9//R/v/9EX7F/8r/D/v/9Bn8e/qn/K/P/uAPQA/f/3R+m3+I7YP7tyZEpewX9bv0P9h/bjkJ4AX4v/Nf8p+U35Y8auAD5seMDjb8B6gB+a/+T6YP/b/i/Ob+Yf4H/1/5D4Cv5b/Xv+z/dezF+4vsv/sUNr4L8aYdlRUXwX4shpOTP2QbKiovgvtscGAa+HoAx6MZhK+QVF8F9t3pum8n7v8pwb9L7Jo2cWmOWQL42NZxqoYa4Dq8+YOR6rUf7GGqpVtthI0wz06IpfOyIoJjg8fjv47eCUSKqUAS2IqozTqioj6Vs7nxXWW86U2NH5plnqLMsbETAabL4LY0a+zC/+u1g5fBdpmYULV/x90lQMrXtHZcvOb2FNR9IdDGOH4O1ZrbsSAhphlQuhxTC3+vRpeGt0qK0sZTbHLb5URJBwwMrvXkqKXcqNVCkoo+NxhKoAAvhwFAvxoVEcKyBnZV+pc0gfYfTfysBUXwRSVNbdqsBGTuehvXOvakTRLtRyC+31lrQCMT29x0OAjBgfDSsTdHd845BfjS5zklB7D7DTV2/GmHZUVF8F+NMMAAA/v/wYwABtN2Qwo/8q94LvNWdk5ymHS/tl0y7Vq6PqaFNn2AtLzxK+Ns7KZin0P5H2nm6j9Gs2jt9P1ongas5Y2rU6szqUtlq/op9/28gutBn3k0f86imYdxTV5cTCCMCzqgrtw9wZqj3V1aTZzaZGnfPSmiVTZXWFm5MXlj/SNmxpO9Hwvvy4hVWhTtjVvBiU4d5/dg2haainWkQr//4KLkjGOfC9+xo7GBoe+IpTsqS6wKad0REb//wvn1QgMsXVDuSuAPPmBNRFmlmAqFa3fmwJoNcwE1ZqDn51g5logOf9AsqBI7LBvdLnfXeqE0vksGdyqz9n0irSN+Bh2pUKXDF/yPI21Ic6YB/PnHYiIk4ftONv+fFseowfdbyu3/nOPoNdFf8Ca26MrHhB6N7dYYMtorj8JoEi9wA/Nezi2oSmCn79+pQaV7/sEc5bz1l/W96ep/jKS+t2EcRfcqKyE9ZSGOxOneoj2jLrisWOIKebWN4EnAp9uT5ymEJVPNJc7yR3U2J2fUrGMvhNWluUUbJFd3N5sACrarq/i3/7wd4ivcP26qs9zZSSaIiqVzd4tJvbD/sX6YcgnqN2mHJlgqLUqhDbEPc0tFvmMD+6PZL0f8NaLoeDSF7p4WptPbbhjHnLTsDdPss8kI8clP2f8QWDOr13GfFP7WR9GkkDwBVhDrBEs2uhgJCz7mHFIKb9A9HRdin774e9bu7Zli8UhawVXHBdrCE5app4tKbL1uk6iUXHVOBT8ePsGNUPcBzXUsUdcqAoYP0fl07PMy/Opj+BISefcgdSqISgwB935CNiL8topxJ7UAq8ASBttE4AxfZ+seC+Qn3ZhkA/8oPdbUhnkIFqSxvv9eK1OpeGHgovbq5liymtrV/XHNSzoRoBlivA7hfy9a/t2+ZyElTe5dhXL6OvIsG4b+EYnNwc6bLmxUM6hVF/2qqV6x+xDdiTTmjgiTI6alXiWLbE8eqOaPv1a11BvGkmTwOo3E3vs+0P4epBS+p8bKgYuPWJMVlcP2oIH9jFSIDzqOVUwgZcv3dNP3CLsW6fBPMQfHbtzoq9UD7Zu0wh4dNuAj49kOLG0LtkF4SaajDG5U+0Xqftg6CqNS2UJUtdtvJV78FOnanBL5KKtNXE/nX118GGilDRVcIsoEBHDPyRZe5vAN/72POdA41wKquEAlIAR6lvH4nLj+CltazfxC3SdvqjlLJSNOySAcBVK1PxDP/Z1G+9EoeCzqh8mgdNxhO16qNwkPD2GOVK2/r+qVU2/etsLjgmX6Tace2hIdoCE0cDOvaIIfEKKOhiJle1+hCiDe1gfRPmOQD1V6Lx1UDB3cCO7NuBaptPQxM0BK192EUARn3OflgYPiLhv8EwdlhkocQzTtPM17CJbJm/ILDIjVFcSWEGTFO2Zt0tjmHCLZEip0EucM7AFVp0U//kS0Tex1970PyUJVSjak//3itg+qSJOTNrihl4dpIz+wsCjKh7vIt1CepwV7+Wp+8sMnAVoEmEfm9oU/nohGaiSa+/p5mWtUU8kHjb9Bmj3yz7Ob+/SRL8gzZicODSB/X1PGJP/EH+S+Iv9iA7sJYJrwH6c0b218xjDX+Ki+QaA4tc1wxICuI2yhLu5HFnJv6XUtHyxuk3X7gWXbdWqoqoXvuJvBTA9gCkiJ/5q910SUoQt2/6rqwal4ZIUgxdmwXC6fzyxQDU7oA/e2g8QgsGT5Igrir/c0wuix19tURK61KCQebC0E7Cy3mFq9dzG4HkW0XYs086JFQaMpLXL7WmGFjSDCsGLMPPvTc8y+C4lNPFqI4Dbccbk7dqEAFyhhYndhF+1/t8BjJcUI7k3v7Z44u/feYIT2Ydfi75fKy3+Biv3m7g7rHTsLEQK+Knie3xWvibSPXEOK5GRJVEQRLZM35ChKwXO3HlHHtLgKSEGQI6K4OfwFoZh596bnmXwJlOE8BAJMXjsniWKyrOtTdcNO4UB8ZhzG/CmqPwrmKH2KWP4qwEHQ4E0DVCZ/91DYLFVWH/GxESAlclOGA2/9Mmx2kfuoq73VXpkhXwx0Ha68soRr48Hyig1VOJ+afUQDzYgGctmze/AwS5DepkrYcEm93wpvkfXWX51kyRu8nvgFZVbJ8tn9tYp0eDuNiFhplwkWYnVQkKdxwj54r5e3uoqro3TNAkELcPVJS2+XWG0P4pLNv4/kT1tlYlltV0XuY6P6Z/pR0+e/dQdK73G478kZSmiUqtumF5Dw+G3m/LX8Bb0CiWJZLFFFf+LRB8WbC1tb9DenKzdXezP4x+nWBVECf40GmUgQPvANvlgbEy6gE/ya94Y2CsHRIvUdOFDxCgQPQdYynjPWx+zsR/scvQB6R+MFSoziZ09UDXcqiKY1CUmZ/zbp0nUZ+bue0BgEwwsfM9yLC83HYYp8/dNiASwqga9xyLSqZoqE8M9K+OU4UReglWHHRLatQvyHHlQgDroE4vyoGfa3xSFE7HhRIEHGm/st4D17KkswrZVUr/tA2Js2FpAVhe9Man84c/Lhk759l1/gRw4dxxF43QryQdGzmZQPS8xhHuAO3kjvtg2kwPO2DydslL4YVJ+i+0cuZrIJWSt3C1svepFptBPUbPz/LaRP/Jg+nemjh/dC7CBFhy3aYmQTTt1RKWdaTfEevDwL7yXQ4wdSKUX0vYvbvuojWJwZ/VN1qTdG66rNJ9DORQAOfmiJ6gpdhjs1FtLoJdVQ71Bx4uq1Nz/3XYxIoQehV4rhw7d5G1GFrGkD1+pb7B9ojk/iHEkLLxEcI0dBQaeVwdUFfYawbhKCyrvPMCoFQI2CqIBiLc8aXv848eDMHl0yJ/G0m6rl73efo9xmxz0zAfwu5Q4AXvSnDuif/xhE4wH/KvMl3T2BJM1pTOd/hE2KKoimNQlHCy3XjhKgsTxHyjH663qC2tfwV88lWWjWP3mMKoHg45FpVM0VApuBCTBU43e2FEOZVAmnNEkGddDGUYxYm/Mc2vAL/kM1f9V7sEW8IkZ897rCy0+QoniLWozfkJ5ERVJickLehkKL7DlTmd+r8DW2WbaV/4swdErYu2Zv/V4VHq7oS7ad934YatY4Xd9qlGYqSG4G1ozh7f3bZzviDeXjOfSNWBbtgOgjey0lBxlmdJKAQ1om7dN1ZSTuPS4HYdVNV8BQZxpjzB2Hd+g1cd5Uwpa5RVvDv955oAtOjsM6wFkWAc5HTz1mpaFNWi2M4gOXYA3clynpAu2QL2xp7DORpAAAIkXJD3+ChGI3S7sSwF5mznXHIIrDLoEdUVkCL82r0oZcSLTi2r4Y7gq/MMyctpe+UOcEpc1lIdA23RtBIamAYE8aIb1r7bzW8jrN4KWKgilDpKqpyqzBI3H+bdCgOc6XpmDEVdA2qL81Eu03qNmNn3TfYbsp+cS/A8e9QLRWXkqnKR20kzfKcIMVNAKSzuj7i6xy+69DFsN5bjhtGEvSCP30oqrKt4A308eS33a5cD6ZmQfAIdiE0Eq6Pa211Uckc1mGZZE6REz7iULYkWVkHvQG+L08rGq579EVFaEzCJt5Bw7uSkj36Gdj7isAjDOoUISbHSsi5XUQzjUHhR0i8G1DKgoheFjKnxDi/qJsdh6Vhj34JKTYulswxSefD3gtNUpBJM9pY8p6c4As7VAla2zrlxtLtp2r9OYltqo+02rvRxeXk8TFE7T3DDBSTCaCuRDaLLNqK5iQBKwMNJ65pVrCBeJPoqNmq47vpcO+4efPsW67HTWxzXMgUomGILrCQTG+R7crSyC3VEAJ7aI+NxdB0Of92qLILEm5R1CAEXXFKLilGHnvmlB0L73VsgQ4MfUHZG1N67YqbI9YHV/NRleRfuRsX8ChrfSKFC1wA0owMSUPGmvxLt3Uy1Gwf/6ZWvHUTAlK6TJg5bux+cwDc7TcJRa+foBHMufcDZ95sTAmw09M+NIQYQB9oXsb0J8bymKvQpBgqw7jK4X/A4soGot58fQbWPJGiGJnYJh1msvoQuZ8R4E+SzeyPUP2I+rBZXxYUvgtPvf15qe4yPqWNQPDp3T7CYf81fMwberNDNSfLEuqiYttnpIwT7g/OxYH+6u5cXDKboDiaCyZd6vCzb8mR0U/RXaWc9ZShd4etet0iTocU//8BSUTtjD9o4TnXOs30beFokoJIOw6M9BWAnAWmr8+OTWzzKWxjlpAcfmXNt/+IVpDD8mQrjcTBfun17zbLvJ+K1hsWZHA4go+LT1ydp+tp1CKmwLKvLB1kgLWF8gKjLEVh/sIjFgnaJIVNg3DiMNIyYG1qQy9QhlKHb0zQHfMBuSzDMMyq1vXECnzMDd5u/rdKcudqj6i0tXC/wDtOEfeplsT/uT8Xa8yI+u8aJPi/nZ8Obo8YgrWRDBHgfh4oFh5GaAeSDFArrT15b74nToXBwy6+cGycxYAAAAAAAEVYSUa6AAAARXhpZgAASUkqAAgAAAAGABIBAwABAAAAAQAAABoBBQABAAAAVgAAABsBBQABAAAAXgAAACgBAwABAAAAAgAAABMCAwABAAAAAQAAAGmHBAABAAAAZgAAAAAAAABJGQEA6AMAAEkZAQDoAwAABgAAkAcABAAAADAyMTABkQcABAAAAAECAwAAoAcABAAAADAxMDABoAMAAQAAAP//AAACoAQAAQAAAAABAAADoAQAAQAAAAABAAAAAAAA;imageBorder=#FF8000;strokeWidth=2;fontSize=18;labelPosition=center;align=center;" parent="1" vertex="1">
                    <mxGeometry x="71" y="557" width="48" height="48" as="geometry"/>
                </mxCell>
                <mxCell id="55" style="edgeStyle=none;html=1;exitX=0.995;exitY=0.63;exitDx=0;exitDy=0;exitPerimeter=0;entryX=0.005;entryY=0.63;entryDx=0;entryDy=0;entryPerimeter=0;fontSize=18;endArrow=none;endFill=0;strokeWidth=1;" parent="1" source="53" target="54" edge="1">
                    <mxGeometry relative="1" as="geometry"/>
                </mxCell>
                <mxCell id="53" value="ConfigMap" style="sketch=0;html=1;dashed=0;whitespace=wrap;fillColor=#2875E2;strokeColor=#ffffff;points=[[0.005,0.63,0],[0.1,0.2,0],[0.9,0.2,0],[0.5,0,0],[0.995,0.63,0],[0.72,0.99,0],[0.5,1,0],[0.28,0.99,0]];verticalLabelPosition=bottom;align=center;verticalAlign=top;shape=mxgraph.kubernetes.icon;prIcon=secret;labelBackgroundColor=none;fontSize=18;" parent="1" vertex="1">
                    <mxGeometry x="231" y="630" width="50" height="48" as="geometry"/>
                </mxCell>
                <mxCell id="54" value="Tunnel&lt;br&gt;Credential" style="sketch=0;html=1;dashed=0;whitespace=wrap;fillColor=#2875E2;strokeColor=#ffffff;points=[[0.005,0.63,0],[0.1,0.2,0],[0.9,0.2,0],[0.5,0,0],[0.995,0.63,0],[0.72,0.99,0],[0.5,1,0],[0.28,0.99,0]];verticalLabelPosition=bottom;align=center;verticalAlign=top;shape=mxgraph.kubernetes.icon;prIcon=cm;labelBackgroundColor=none;fontSize=18;" parent="1" vertex="1">
                    <mxGeometry x="331" y="630" width="50" height="48" as="geometry"/>
                </mxCell>
                <mxCell id="58" value="" style="edgeStyle=none;html=1;exitX=0.995;exitY=0.63;exitDx=0;exitDy=0;exitPerimeter=0;entryX=0.005;entryY=0.63;entryDx=0;entryDy=0;entryPerimeter=0;fontSize=18;endArrow=none;endFill=0;startArrow=none;shape=link;strokeWidth=4;strokeColor=#FF8000;" parent="1" source="46" target="44" edge="1">
                    <mxGeometry relative="1" as="geometry">
                        <mxPoint x="330.75" y="581.24" as="sourcePoint"/>
                        <mxPoint x="391.25" y="581.24" as="targetPoint"/>
                    </mxGeometry>
                </mxCell>
                <mxCell id="61" value="ttktjmt.com" style="edgeStyle=none;html=1;exitX=0.5;exitY=1;exitDx=0;exitDy=0;exitPerimeter=0;entryX=0.5;entryY=0;entryDx=0;entryDy=0;strokeWidth=1;fontSize=18;endArrow=classic;endFill=1;" parent="1" source="60" target="63" edge="1">
                    <mxGeometry relative="1" as="geometry"/>
                </mxCell>
                <mxCell id="60" value="user" style="sketch=0;html=1;dashed=0;whitespace=wrap;fillColor=#2875E2;strokeColor=#ffffff;points=[[0.005,0.63,0],[0.1,0.2,0],[0.9,0.2,0],[0.5,0,0],[0.995,0.63,0],[0.72,0.99,0],[0.5,1,0],[0.28,0.99,0]];verticalLabelPosition=top;align=center;verticalAlign=bottom;shape=mxgraph.kubernetes.icon;prIcon=user;labelBackgroundColor=none;fontSize=18;labelPosition=center;" parent="1" vertex="1">
                    <mxGeometry x="-30" y="420" width="50" height="48" as="geometry"/>
                </mxCell>
                <mxCell id="66" style="edgeStyle=none;html=1;exitX=1;exitY=0.5;exitDx=0;exitDy=0;entryX=0;entryY=0.5;entryDx=0;entryDy=0;fontSize=18;" parent="1" source="63" target="50" edge="1">
                    <mxGeometry relative="1" as="geometry"/>
                </mxCell>
                <mxCell id="63" value="Cloudflare&#10;DNS" style="shape=image;verticalLabelPosition=bottom;labelBackgroundColor=none;verticalAlign=top;aspect=fixed;imageAspect=0;image=data:image/png,iVBORw0KGgoAAAANSUhEUgAAAfQAAAH0CAMAAAD8CC+4AAADAFBMVEVHcEz0giH3kSz0gCD6r0H3lDbzgCD1kDv0gSH7uFj3kS3////zgCDzgCD0gSD3jyv0gCD0gSDzgCDzgCDzgCDzgCDzgCD0gSDzgCD0gSHzgCD1gSH7skj1gSH0gCD0gSHzgCD0gCDzgCD0gSD0gSH0giL0gCD4mTL0gSD6rkD0gCDzgCD0gCD0gSD0gSD0gCD0gCD7r0H0gSD0gSHzgCD0gSD0gSHzgCD7qj30gSDzgCD7r0L7rkD6rkD6rkD0gCD1gSHzgCD0gSH6rkD0gSHzgCD6rkD0gSD0gSH0gSH7r0H7r0D6rkD6rkD7sEHzgCD6rkDzgCD7r0H6rkD6rkD0gSD7rkD7r0D0gCD6rkD7rkD7r0H6rkD0gSD7rkD0gSD0gCD6r0D6rkD0gSH0gSH7r0H7r0H7r0D6rkD9yYT/9OT5oDj6r0H0gSH6r0D7r0D////////7r0D6rkD6rkDzgCD1lET////4t4D8yoH////7tlP////////+5sT+9e34rW/zgCD6rkD////zgSL6r0L6rj/yeBLyeRPzfhzzfx3zfBn6qjbzfx/zehXzfRr6qTTzexf6qTLydxH6rDvydw/yeBH6qzn//fv6rT3/+/f2nVL/9u7//v33oVr3qWj///7/9/D0iS/0jDX1jjn/+vX3p2P0hSn6s0r+7eD0hCb2n1b7z6rzgiT+8OP0hyz8zov5uYP70a37u1784cr1l0n8yHz/+PP3pF74sXb4sHP5u4j95dL96dj3q2z96NX827/2mUv1lkb8xnf1lEP969z//Pn1kDz717f707L+8d/+8uf7tU/94876yqHzgSH+9Ov/+fH93q/8xHL7vGL91Zz7wWr6w5X1kkD82bz+5L7+6cv7vmX8y4T92KL+7dT+8+P0ijH838b+79n5vo35wZH4tXz4rm/5t4D6yZ783cL926n80ZH7uVn/9+v+4rj/9ej2mk76x5v805X+58b6sUf93az6y6T7t1T6xJj6zaf4s3n94LT+58X+5sP6xZkWQWvNAAAAgXRSTlMAFAOwZQX9c2VzCGXa+WgLilnW9uHzzV7eMeQgFg6zTLiE6DcnbqsBSNGYwIGde4+TPDwj0UAr7xJju2ul2uOhGvEd8xjJ7nNSLidOvrIN6vvGLpnpVJQapvescsVEiWvDj8xhV0U0WP4QEi9iRZ9dH6qFe7Zhe/bd8JD1O3VnZW3fQPdxAAARgUlEQVR42uzdeVgU5wHH8QCBx4dwLAjIIZeAcoMgeNUKCh7RRK0ar6TaaFsfnydt8vTp3f7xzkR3uZcFwRWPgoAG7yOeUWOM91GruUxTqyZpU0372ESTxjxpuxBhl3PnnWtnXn6fv/Wf+TIz7zEz+9hjAAAAAAAAAAAAAAAAAAAAAAAAAAAAAAAAAAAAAAAAAAAAAAAAAAAAAAAAAAAAAAAAAAAAAAAAAAAAAAAAAAAAAAAAAAAAAAAAAAAAAAAAAAAAAAAAAAAAAAAAAAAAAAAAAAAAAAAAAAAAAAAAAAAAAAAyGObt7zYhOz43LCw3PmKCW6QnDgm73KZG+6WmxRQGhuf7knZeXvlBgYVjxqcOSAxzwzFiKXfc6MwxocHEieDQmEy/LKTXPf8wv/GBTnN3Sj9ifEKYN46cTnmGTY4ZQkQZEjM5DuF1pyBgfjiRJHx+QB6Oo35kJ4wZSGTguyQhAkdTF+f4gBQvIhuvlMUTcEy1zT3aYyCRma9HNObyGr6sp4YSRQQZsnF0NSlrqBdRjJdHDo6w5q7ry2YRhYUMcsdx1tKUfGkgUYHPANzcNZN8gA9RSWgC1mw0IUC15G3ZB+GIu1xiIVFZSDSOukvFRxEXiJmKI+8y/rFexDUMkTj6rjE3iLhMOG7trpA3lLhUFNbkVTd6JHGxYD9UUFWBB9GAMTjZVTRlBtGEkcvQQq0VuGSiGWn+6KHK3DyEaEhgGIoob1kw0RRfTN4UZyCak4kqioqMIhqUgjckFJQbSDQpNBdtlJKTTzQqGDtvCgnwItqF5TlFTCaalo5C8oslGmdAI7llEM1LQyV5JRMdGI9OckojBNVxnqM67ue4r2PcjjE85ueYr+ttHY7oDNbmJHuB6A7W4SWKz9df9GC8ACNJZCDRoVDsr0sRQ3QpBeX6xQQdT1DJZBnRraWoJ05usH6j++LJaFE8RxAd88FbEGIkE13DKrwIU4jOBaAhrbwZeo+ej48J04oiujcGFemMJgzA1gvdxX0kC9GDcYGnMZQwIQol+8VSXGd4jVkw/yBWoofje3NCGQgzMlBT4Jq7FzvRCR6o6DdTdEzWKSUSpuCJOSFC2Io+AkWdG0QY83M0dcYzlLXoofgFEGf8CHMSULW/neiEBOFU73cnOnbbnHD3YTG6D37Fry8BhEn9b9/FLfe5gIT0WIMhNn3xspz4Pl/5KWQzekh/6p2XmBrl0+Xp9fxAj9TEgp7/fQ5hVH/5dV7PLEOIb28HwbfQkNPD75Z6sBrdo18kj8t0uicenpzV5T9le7EancQzXzxyscD188DJne7wscw2JwbWB26xFI+sB2dm228IQexGD2L6R7j90ykfZPVKbv+hqymEYSzvsPqF0x+PgbH+bA/j2B7Khc0SefGba/vPBQNZju7L6A/3uaeKH30PdWNz2d1uMZPNpf1e2pDEFLajM/kdmrnBBPoasDL4jpMBWZ1g7lkKdw9EdWYJa0twKWjqfPyex1TzghAkFYCp75Ho81ue6pvPUHPvWegpSDg76+/DYpBToDhmoqchplCTWWmegJaCsfI1kiykpLips/HWg1sQUlJg4yvBQxGSxi+Y2GRBRxqVv2Jg0jYqHCFpGPf8Rv/Rk9GRRhE5xf9e9w9HoSMV01ae5196Ud/RsZ1Kpcy4xxad/+VLT/zuxRUrVgyeZzN48Kin/fX0TmsOOlIpaTjAt1v3698+WLmc42YumDhpzrjnpy98ZtGPh8/TwTQee+h0ag51NOdPWqpXreK6mDnn2dljh8/Dic6O4pJ9Hc1vWq1cbxYkzf7pk8NwR2dC+Rv2E/2qmevbuNnTBmuwOcNvmCp0df+fw9XdWXSbidPHau5Kn4qMVCpaLnQ0b7pYzQkxc/rj2urug450k/SN9hP9z6WrOIEWLPwhtlR1O4wrv26P/qmFozDuZ1o53TPQkW6vpfG0PfreWo7KxNlP4uquQ1VH7M3Pr7JytBYOd33zXGSk22spPmqP/oWFE+GpH7k6uh860g3j6ni6CVuPZ/v38MSMnhi32Zs3banmRHrGpSs2oehINUlvqLdHvy98wtbNpEWuW6CN8EVIqhP9MC92wtZVkstGdNhsodxruc2Ln7B1u8Y/jTcc9DBJd9hr4c9brdKic9+d5pLomQhJtdfyFS91wtblZHfF4xbYVqUaxm3f4RD9Wqn06FySCybthShJM0lvdmj+J/ETNkfLF6ndfBgWYSmUmc46RP9GwoStk++ofIn3HIKUwpU0rnWIvsvMySRJ3V0Y73ykpNhr2c3LOGFz3HxTdRQfORAphe+1FB2XdcLmaCyia1O5414Lf9fCyen7iK7JYZzjXotMEzbH4Zxq0f3xGVjhw7hbB+SfsDlus6v19rP3DMQUPIw74nii35drwmY33V+d6O7YWRW8Gufw5LPN5xZOds+qtAGDz4KKm6/x75RyClRXZ5kG3wsUekffecWxeZPst/Rvr/CqvOyMDwYKtPrjTif6+WqrEtG5p9R4niYdOQWp3HSgU/T35R/HqTdzm4KeQhSXn+vUXO6lGXVXafDYuyDG5s7NJT4e5+IVWX9M1IWM4jbv6BL9L2bFonPTMHzXwsXddLlLc36/gtEnKrnT6h5ZEBExH02dT9E3dm3OnyxVLjqXpMR03T0iZ3SGxyyfkfgGhRDlZ+q7Rd+vZPTlcg/h3V5IjQpCbJobetm+bs0VvafbyPjcnGdW6hJsq1EqKv+ye3MlR+9tnyuR6Q1H78Q0fNJdxCCuZncPzfkbykbnkuTYZ43LwHeexShbvbGn5sqtyHW8BSF5Mr4Uj7eLbF6z9XSP0ZVae7eT9lmiglg85yy6eV1Tj835tRerFY4+TsK8LSITQzfRzatO1PO9OGlWODr3A9ETtAy8fy5hDHdiXW/N+asWpaNz4t5f90wfiXTim1dtaOq1OX9vpdLXd+55Mc2j8XO5UubnVcfW831Q/vrOPU6dPA+fEJK0Dlf+Cd+nb0qVHr9zc0ZRNh+EK7uk9faXH/JOfFDKaWss54bTXNrtvPGSs+ZqnOrLaTZZc7D8JunSbmq+wjunwl2dYrsNTztKOs1NLZd5Ie5tqVW8utCNF29c2iWd5sa6U7ww/61WfNq2UFjz7BEIJ2GiVtNwmRfshkXx27qg7xDF4UlHCclNJYcv8BQ+NVs1cFePxgvnEm7mlRv28XTeNit8hZ/pfAAfgHTiz/Lyujs8tS9WKryz7nSuPgjtxCkrqSk++Dovxod7LYqe7JNGobkSKkzGhq+P8iKdvvHAUq3g2T4W76XJfiMvMda0NJ+r5yW4t2uLRbnluaS+mj+HB5spe1dUGqsqGo9tu8BLVX/3LaultNaqyAnfx7761H75hExZWVlxm6IOFd8qaVPZqryVqY3RaKxqVWM0mip2vnnss9dO8/I4f/fafziz2Wwxl9bWVldXW62rZPoT+EnvWyyh+kjUHqlbpq6RHlVqzdShxqat2epWVbZw5eWVlSUVFUVFxYT88eXt27e3tGzevHlnQ0PDrU2bGs+8996bb7x64t91dVu3bjh4sLl548Zjfz906NDXf9v97sM7R9fx8lpz8/7Vt3ftv/bB3otbHqy01potFovtz6C07a/AKvqvoNehnPsS110jOzK1dzI9KvQoTnsgky1Ra6MSW6XWTMVlpK1Uy+adOxtu3drU2HjmjC1Sa6XOmQ7bKn2ye/eRjz76+N2vPvvH5S8fbttz7uzZs9evv37nzu3b+y5deu348aOnTr3yyo4LF66sqz/QdNpmzZr16//Au8b6tf+6+eFf779/9cbntj+Cd97658UHnLW6trTtr+DRH4Hw6v9v795+o6gCOI6Pl0bF65PRYDTEGIzGGF9MlFAfTPTBSwRrCA882wcTE/VZ7eBeeqGdbWunW2ihlMYCaa2UUrWAgLS10AQKFJJerEIAEUsbL9jERuzM7LY73S3dy5w9J+v38yf0tzM98zu3dxcJ/SlJj255adPR2YfJeZoaGqyUDl6OpNQdk5IVU78TUySlAwd6dra1HT95csuWxsaurq7murrZoOrrN+ai2rrBa8fGR4Znrg79Nvb97I9guiWc/NDvjcSZvyAp8+DhX+s2ImXb6gaPjZnJpv5ywvu8Hpa05jW4u5cA05b8ztf3E616lTSxVvHFcaJL37jpz+D9/oCkQVz51ySXgWu+ZN/vBfFHSW6Q9QUW3EpyGbiQ/Ag+bmNbnrR7WEJHSS4D7ckvp407Z2yFvB4zdIXo0nbVDKfdvz8vsXKvKP7mkPXJ3WMXI1YzYn11O9/ctfXkumh10zg1ss9Mfka28K117tAflbzywK7YSotLik60tu6yG9Cfm6wG1KpAE9Q2/1xyapuLF8/diJRrVm3jlGt790Zam53zrU2z/QuqlVauedbM/Dt53e7nRjsmBlp8ZmrTcu6z5Z6UXqe7qvSFNfqCgjYQV9DaUx9OPxtK3M82Wf2sXaJHW3Srn43Ws5ei9eyNSD3b/8P8L8j5CUWbv8bZN5DTzop9jnsHp6IZj8V2sEZsCZtiDe/+p54ba19TmYlJMBETiE7EOL+lmImYkpKiovl5mMhvqO9Iw9Zf9uxv9DTrxgvDP1o9e8d0y18+f7VTs2c+2xI9CZ7FMulMuVbETLmGygNVgYrtDVd6vAl8arL9TItpT6vOZezxoqmYL/WV7EbOYH4wWLNpd3/GRfL4H6M+wzAFH0Kzlgfdu4FocMffGS2dGOqoriwLCz5qyj29ym6WjP8PhAKdh9KN/M/T4UpT+CYX2wfKDN1zI/Zg6VfpjOdrT3WUGdlJfNZHnNvt8Uu+anPK04XbZiYMM2uR6/rqubWQ5OXRw17TtzO1zIc7DNOvZ9HcQrlnicuzCcOmVFI/drqsLKuRz4rsaVvGeRPeCRxpTnpLy5DPCOvZ9hw7WrxXk+zigHHBm9cW8Z4TOidOeNrVVP2eVOZD4ay/2W0fOnefc2iYp0p3JfFvfeqslMd8bsvyO+Tk8Qv+4JKZjwwYfjmZR46k4J4lrz/Xi79barFL2NRlsduZPMbunj/ql5dY1GZUS8u80D4e+HFC8trN1/HX7qsM6/Ks5oRAQY/6TWbcms9KzdwJ/UUy8r6Xa1h8YcyZSr/MzPV8q47jYhYB7/cvF9uy3jxqyM1cz89jskWITeXnE2ded1Z25nrB/dI2J+e4RVq5+tOVsjO397MxwyZC4NuEoY/Jz1wvWMY4LpsjuSEjLD1z6396HvemihDqTJD5pFmtKxD6Sm05B/+KUNpXG7+j2GcqkLn1nU4fJyb0prgjdHrPlKmQuXVLGwsoshV6uwKDOMvrmvYqAQkJfcfCDS/DZWElMrcu9uCLTcxAbuHZGoMDphqZ629r2ksEJEL55riXuyKZW1tc2OYgppxZsDpypDqsSuirNG0NAQkJvdsduiIj98hZFA8SkJDufY+7ljH8yoS+lu2qYpRU7HetlZkwlcl8/TpNu4eERHyxbXdtc7muzoNemH+rpj1EQgK451t6p9V50K1uhiddiJpzsaHPKPQf3fpM1zhrRsS/9FLXremj6gzdnYu6GL0LL2HHzbBCoVubVp8mIgFf6a59TWOGQpmvf0T24aA5G3rsV/pgS7VCodsnAj9DRJ4rbm2LCf2USsM45262FWTkufLDyg7jnCMJ7iMj7zvY7vSuXchSCatpj5GR5x9sofOuHaoKRW73cayRE9LBdsVsYxpQaRgXOZFg+b2k5LHPDyo6v6bPnTJ0Gyl5+3IP7joQu7+hUqXQX4lcwXjLGpl/ohOf5ZxOVwX707TflxVJ7XOYv0F9w53yPHFHrvn0k7tdPr4rO1bdvqTX3tQAAAAAAAAAAAAAAAAAAAAAAAAAAAAAAAAAAAAAAAAAAAAAAAAAAAAAAAAAAAAAAAAAAAAAAAAAAAAAAAAAAAAAAAAAAAAAAAAAAAAAAAAAAAAAAAAAAAAAAAAAAAAAAAAAAAAAAAAAAAAAAAAAAAAAAAD+H/4DSSNYgMsaJycAAAAASUVORK5CYII=;imageBackground=#FFFFFF;strokeWidth=2;imageBorder=#FF8000;fontSize=18;labelPosition=center;align=center;" parent="1" vertex="1">
                    <mxGeometry x="-30" y="556" width="50" height="50" as="geometry"/>
                </mxCell>
            </root>
        </mxGraphModel>
    </diagram>
</mxfile>